<?xml version="1.0" encoding="UTF-8" standalone="yes"?>
<svg version="1.2" width="192.000000pt" height="192.000000pt" viewBox="0 0 192.000000 192.000000" preserveAspectRatio="xMidYMid meet" baseProfile="tiny-ps" xmlns="http://www.w3.org/2000/svg">
  <title>bimi-svg-tiny-12-ps</title>
  <g transform="translate(0.000000,192.000000) scale(0.100000,-0.100000)" fill="#000000" stroke="none">
    <path d="M852 1758 c-54 -51 -221 -212 -372 -359 -151 -146 -308 -296 -347&#xA;-334 -104 -98 -98 -125 29 -125 l78 0 0 -388 0 -387 25 -28 c14 -15 27 -28 28&#xA;-29 1 -1 133 -5 292 -8 l290 -5 3 -27 c3 -28 4 -28 76 -28 72 0 74 1 86 30&#xA;l12 30 269 0 c150 0 279 4 293 10 52 19 66 62 66 196 0 117 1 121 26 145 48&#xA;45 68 97 68 179 0 82 -20 134 -68 179 -22 20 -26 33 -26 78 l0 53 71 0 c73 0&#xA;109 11 109 34 0 7 -65 77 -145 155 l-145 142 0 210 c0 126 -4 218 -10 230 -10&#xA;17 -22 19 -140 19 -70 0 -135 -3 -144 -6 -13 -5 -16 -22 -16 -76 0 -38 -4 -68&#xA;-9 -66 -5 2 -70 63 -146 136 -75 72 -141 132 -147 132 -5 0 -53 -41 -106 -92z&#xA;m182 -15 c39 -37 186 -178 326 -314 140 -135 301 -290 358 -344 56 -54 102&#xA;-102 102 -107 0 -4 -37 -8 -81 -8 -98 0 -49 -38 -456 358 -161 157 -301 291&#xA;-311 297 -15 11 -31 0 -128 -94 -61 -58 -216 -208 -346 -333 l-235 -228 -82 0&#xA;c-64 0 -81 3 -81 14 0 8 9 21 19 28 17 12 357 340 696 670 71 70 134 128 139&#xA;128 5 0 41 -30 80 -67z m496 -233 c0 -104 -3 -190 -7 -190 -4 0 -58 51 -120&#xA;112 l-113 113 0 77 0 78 120 0 120 0 0 -190z m-359 -87 c112 -109 263 -254&#xA;335 -323 73 -69 135 -135 139 -148 4 -12 4 -38 1 -56 l-7 -35 -47 14 c-61 19&#xA;-106 19 -171 -1 -127 -37 -211 -194 -170 -314 l12 -32 -204 -199 -204 -199&#xA;-269 0 c-263 0 -270 1 -293 22 l-23 21 0 397 0 397 88 83 c170 163 556 535&#xA;571 553 8 9 20 17 26 17 6 0 103 -89 216 -197z m455 -594 c98 -50 140 -149&#xA;114 -261 -15 -60 -74 -127 -137 -154 -47 -20 -128 -23 -171 -5 -32 13 -33 13&#xA;-86 -37 -36 -34 -65 -53 -91 -58 -28 -5 -42 -15 -56 -39 -11 -18 -33 -38 -49&#xA;-45 -15 -6 -33 -24 -40 -39 -6 -15 -27 -35 -46 -45 -22 -10 -39 -27 -46 -46&#xA;-9 -28 -14 -30 -59 -30 l-49 0 0 38 c0 36 9 46 191 222 181 174 190 185 185&#xA;214 -17 92 -18 106 -2 154 21 62 81 125 139 146 59 22 144 16 203 -15z m-116&#xA;-454 c36 1 80 5 98 9 l32 9 0 -116 c0 -108 -1 -117 -22 -131 -19 -13 -61 -16&#xA;-260 -16 -157 0 -238 4 -238 10 0 20 34 62 57 71 13 5 31 22 41 38 12 21 29&#xA;33 57 40 26 7 55 26 85 56 35 35 48 43 65 38 11 -5 49 -8 85 -8z"/>
    <path d="M480 660 l0 -230 235 0 235 0 0 230 0 230 -235 0 -235 0 0 -230z&#xA;m229 0 l0 -200 -99 0 -100 0 0 200 0 200 100 0 99 0 0 -200z m210 0 l0 -200&#xA;-99 0 -100 0 0 200 0 200 100 0 99 0 0 -200z"/>
    <path d="M1517 742 c-22 -25 -22 -85 1 -105 29 -27 64 -29 100 -7 27 17 32 25&#xA;32 59 0 30 -6 44 -22 55 -31 22 -91 20 -111 -2z m85 -19 c25 -22 23 -50 -6&#xA;-68 -34 -23 -66 -5 -66 35 0 44 39 63 72 33z"/>
    <path d="M1135 313 c-88 -86 -145 -143 -126 -127 48 41 297 283 291 284 -3 0&#xA;-77 -71 -165 -157z"/>
  </g>
</svg>